<svg xmlns="http://www.w3.org/2000/svg" xmlns:xlink="http://www.w3.org/1999/xlink" viewBox="0 0 136.1 29.5" xmlns:v="https://vecta.io/nano"><g fill="#5aa947"><path d="M14.398 14.597v6.1h-10.7v-6.1h-1.4v14.6h1.4v-7.1h10.6v7.1h1.4v-14.6h-1.3z"/><use xlink:href="#B"/></g><use xlink:href="#B" x="70.2" fill="#424243"/><path d="M40.398 27.297s-.1 0 0 0c-.1.1-.1.1 0 0a5.26 5.26 0 0 1-4.3 2.2c-1.7 0-3.3-.7-4.3-2.1-1.9-2.7-1.9-6.3 0-9.1 1.6-2 4.4-2.6 6.7-1.5.7.4 1.4.9 1.9 1.6v-1.9h1.4v12.7h-1.4v-1.9zm0-4.4c0-1.3-.4-2.6-1.1-3.6s-1.9-1.6-3.2-1.6a3.43 3.43 0 0 0-3.2 1.6 5.16 5.16 0 0 0-1.1 3.6c0 1.3.4 2.6 1.1 3.7.7 1 2 1.6 3.2 1.6 1.3 0 2.5-.6 3.2-1.6.7-1.2 1.1-2.4 1.1-3.7m4.7 3.6c0 .9.4 1.4 1.1 1.4h.6c.3 0 .5 0 .9-.1v1.3c-.4 0-.8.1-1 .1h-.5c-1.6 0-2.4-.9-2.4-2.7v-14.6h1.4l-.1 14.6zm7.9-8.6h-2.7v11.3h-1.4v-11.3h-1.4v-1.4h1.4v-2.4l1.4-1v3.4h2.6v1.4h.1zm.8-5.8h1.4v5.9c.4-.5.9-.9 1.5-1.2.7-.3 1.4-.4 2.2-.4.6 0 1.3.1 1.8.3s1 .5 1.5.9c.4.4.7.9 1 1.5.2.6.4 1.3.3 2v8.2h-1.3v-8.1c0-.5-.1-1-.3-1.5-.2-.4-.4-.7-.7-1s-.6-.5-1-.6-.8-.2-1.2-.2c-.6 0-1.1.1-1.6.4-.5.2-.9.6-1.2 1s-.6.9-.7 1.4c-.2.5-.2 1.1-.2 1.7v7.1h-1.4l-.1-17.4z" fill="#5aa947"/><path d="M77.798 24.597c0 .8-.2 1.5-.5 2.2a4.63 4.63 0 0 1-1.5 1.6c-.6.4-1.2.6-1.9.8s-1.5.3-2.3.3c-1 0-1.9-.1-2.8-.4-.8-.2-1.5-.6-2.1-1.1-1.3-1.1-2-2.9-2-5.3h1.4c0 3.6 1.8 5.4 5.5 5.4 1.2 0 2.3-.3 3.4-.9.5-.3.8-.7 1.1-1.2s.4-1 .4-1.5c0-1.5-.9-2.5-2.6-3.1h0c-.1 0-.3-.1-.5-.1s-.3-.1-.5-.1l-2.3-.6-2.4-.6c-2.1-.7-3.1-2.1-3.1-4.1-.1-1.5.7-3 2-3.8 1.2-.7 2.7-1.1 4.1-1 4 0 6.2 2 6.3 6h-1.4c-.1-3.1-1.7-4.6-4.9-4.6-1.1-.1-2.3.2-3.3.8-.9.5-1.5 1.5-1.4 2.6 0 1.4.9 2.4 2.6 2.9h0c.5.1.9.3 1.4.4s.9.2 1.4.4c.5.1.9.2 1.4.4l1.4.4c1.9.4 3.2 2.2 3.1 4.2m2.9-9.4h-1.4v-3.2h1.4v3.2zm0 14h-1.4v-12.7h1.4v12.7zm6.4-11.3h-2.6v11.3h-1.4v-11.3h-1.4v-1.4h1.4v-2.4l1.4-1v3.4h2.6v1.4z" fill="#424243"/><path d="M30.298 13.697v-.4l.3.4h-.3m1.9.1l.1-.2h-.1 0 .1 0 0 0s.1 0 .1.1l-.2.1zm3.3.1h-.1-.3c-.6 0-1.2-.1-1.8-.2h-.1-.2-.7l-.1-.2-1.9-.1.1-.9h-.2c-.2 0-.4 0-.5.1l.3 1.2.1-.3.2.2h-.2 0 0-.1-.2-.2-.9c-.4 0-.8 0-1.1-.1h-.1-.1c-.7.2-1.5.3-2.2.2-1.8-.1-3.6-.7-5.1-1.7 1.4-.8 2.9-1.4 4.4-1.7l1.4-.2-1-1c-.9-1-1.6-2.1-2.2-3.3 1.1.1 2.2.3 3.2.6l1.1.4-.2-1.1c-.8.1-1.5-.4-1.6-1.1-.1-.8.4-1.5 1.1-1.6.8-.1 1.5.4 1.6 1.1h0l.8.9.4-1.2c.3-.9.6-1.8 1.1-2.7a15.95 15.95 0 0 1 1.2 2.7l.4 1.2.8-.9c.1-.8.8-1.3 1.6-1.1.8.1 1.3.8 1.1 1.6-.1.8-.8 1.3-1.6 1.1h0l-.2 1.1 1.1-.3c1-.3 2.1-.5 3.2-.6-.6 1.1-1.3 2.2-2.1 3.2l-.9 1 1.4.1c1.6.2 3.1.8 4.5 1.7-1.6 1.1-3.4 1.7-5.2 1.9m-3.1.6h0l-.1-.1.1.1h0z" fill="#fff"/><g fill="#98ca40"><path d="M30.498 6.897c.1-.2.2-.5.3-.7.4-.9.9-1.6 1.5-2.3-.4-1.4-1.1-2.7-1.9-3.9-.7 1.2-1.3 2.5-1.7 3.9.6.7 1.2 1.5 1.5 2.3.1.2.2.5.3.7m-2.3-.2c0-1 .2-1.9.5-2.8-.7-.7-1.4-1.4-2.3-2-.2 1.4-.3 2.8-.1 4.2.7.2 1.3.5 1.9.9v-.3"/><path d="M32.798 6.897c.6-.4 1.2-.7 1.9-.9.2-1.4.1-2.8-.1-4.2-.8.6-1.6 1.2-2.3 2 .3.9.4 1.9.5 2.8v.3m-4.4 3.5a7.82 7.82 0 0 1-1.7-2.6c-.2-.5-.4-1.1-.4-1.7-1.5-.5-3-.7-4.6-.6.7 1.6 1.6 3.2 2.8 4.5h.7c1.1-.1 2.2.1 3.2.4m4.3-.1c1-.3 2-.5 3.1-.5h.7c1.1-1.3 2-2.8 2.7-4.4-1.5 0-3.1.2-4.5.6-.1.6-.2 1.2-.5 1.7-.3 1-.8 1.9-1.5 2.6m-7 .9c-.5-.3-.9-.7-1.3-1.2-2 .4-4 1.2-5.7 2.4 0 0 3.3 2.4 6.4 2.4 2.9 0 4.6-1 4.8-2.2-1 .2-2.5-.3-4.2-1.4"/><path d="M36.498 9.897c-.4.5-.9.9-1.4 1.3-1.2.9-2.6 1.4-4.1 1.4.3 1.2 2 2 4.8 2 3.1 0 6.4-2.4 6.4-2.4-1.7-1.1-3.7-1.9-5.7-2.3"/></g><path d="M35.698 9.797c-1.1 0-2.1.1-3.1.5.7-.7 1.2-1.6 1.5-2.5.2-.5.4-1.1.5-1.7-.7.2-1.3.5-1.9.9v-.2c0-1-.2-1.9-.5-2.8-.6.7-1.2 1.5-1.5 2.3-.1.2-.2.5-.3.7-.1-.2-.2-.5-.3-.7-.4-.9-.9-1.6-1.5-2.3-.3.9-.5 1.9-.5 2.8v.2c-.6-.4-1.2-.6-1.9-.9.1.6.2 1.2.4 1.7.4 1 .9 1.9 1.7 2.6-1-.4-2.1-.5-3.1-.5h-.7l1.3 1.2c1.7 1.2 3.2 1.6 4.2 1.4.3-.1.6-.1.9 0 1.5 0 2.9-.5 4.1-1.4.5-.4 1-.8 1.4-1.3h-.7" fill="#5aa947"/><path d="M35.498 14.697l-1.9-.3-2.5-.2h-2.5c-.6.1-1.2.2-1.7.4-.2.1-.5.2-.7.2s-.1-.1-.1-.3v-2-1c.2-.1.5.3.6.4.3.3.6.5.9.7.4.3.9.5 1.4.6.3.1.7.1 1.1.1.4-.1.8-.1 1.1-.1h.5.7c.2-.1.5-.2.7-.3s.3-.2.5-.3.3-.2.5-.3c.2-.2.4-.3.6-.5.2-.1.3-.3.5-.4h.4l-.1 3.3z" fill="#98ca40"/><path d="M33.898 12.797c-.4-.1-.9-.3-1.3-.3h-.3c-.2-.1-.3-.2-.5-.3-.2-.2-.3-.4-.4-.6 0-.2 0-.5.1-.7l.4-1.7c0-.3.1-.8.1-1s0-.2.3-.6c.3-.5.5-1 .7-1.6.1-.2.1-.5.2-.7 0-.1-.2-.3-.4-.5s-1.3-.8-1.5-.9-.4-.3-.5-.6-.2-.6-.2-.9v-.3c0-.1 0-.2-.1-.2s-.1.1-.1.1v-.1c-.1.1-.1.1-.1.2s-.2.7-.2.8-.1.4-.2.5c0 .1 0 .1-.1.2 0 .1-1.1.7-1.1.7s-.9.5-.9.6-.3.2-.3.3v.4c.1.6.3 1.1.6 1.6 0 0 .4.7.4.8a.9.9 0 0 1 .1.5c0 .5.1.9.2 1.4l.3 1.1c.1.2 0 .5 0 .7-.1.4-.4.7-.8.8-.2.1-.4.1-.6.1 0 0-1.1.2-1.4.6 0 .1-.1.2 0 .3 0 .2 0 .6 1.2.8.9.1 1.7.2 2.6.1h1.1.6.3c.1 0 .2.1.3 0s.1-.1 0-.1-.1-.1-.1-.1h1.3c.4 0 .9-.2.9-.7s-.5-.7-.6-.7m-5-5.9c-.2-.2-.3-.5-.4-.7s-.2-.5-.2-.5v-.1l.8-.9c.3-.3.6-.5.9-.7.1 0 .2-.1.2-.2 0 0 0-.1.1-.1.1.1.1.2.2.2.2.1 1 .8 1.1.9.2.2.4.4.5.7v.2c0 .1-.3.8-.4.9s-.6.8-.7.9l-.2.2h-.1s-.1 0-.1-.1 0-.2.1-.3c.1-.2.2-.4.2-.6h.1c.1 0 .1-.2.1-.2s0-.3-.1-.2h0v-.2c0-.4 0-.9-.5-1.1h-.4-.2c-.1 0-.3 0-.4.1-.2.2-.3.4-.3.7v.3h0c-.1 0-.1 0-.1.1s0 .2.1.4l.1.1c0 .1.1.1.1.2s0 .2.1.2c0 .1.1.1.2.2 0 .1 0 .1.1.2h0s-.1 0-.3-.2-.5-.3-.6-.4m3.1 7.1c-.1-.1-.2-.1-.3-.1s-.3-.1-.4-.1c-.1-.1-.2-.1-.3-.2s-.2-.1-.3-.1-.2.1-.3.2-.2.1-.3.1h-.3-.3c-.2 0-.4-.1-.6-.1-.4-.1-.9-.2-1.1-.2h-.7c.2 0 .5-.1.7 0 .2 0 .6.1 1.1.2.2 0 .4.1.6.1h.3.3c.1 0 .2 0 .2-.1.1-.1.2-.1.3-.2.1 0 .2 0 .3.1s.2.1.2.2c.1.1.3.1.4.1.3-.1.4 0 .5.1.1 0 .1.2.3.2-.2 0-.2-.2-.3-.2m.8-.7c-.3 0-.6-.1-.8 0-.3 0-.7.1-.7.1h-.2-.2c-.1 0-.2-.1-.2-.1-.1-.1-.3-.1-.4 0s-.2.2-.3.2c-.2.1-.4.1-.6.1.2 0 .4-.1.5-.2.1 0 .1-.1.3-.2.1 0 .2-.1.3-.1s.2.1.2.1c.1.1.3.1.4.1h.2s.3-.1.7-.1c.2 0 .5 0 .8.1.2 0 .4 0 .5.2-.1-.1-.3-.2-.5-.2" fill="#fff"/><path d="M5.198 5.797h-2.3v6.9h-.6v-6.9h-2.3v-.6h5.2v.6zm6.4 6.8h-.6v-3.6h-4.5v3.6h-.6v-7.4h.6v3.3h4.5v-3.3h.6v7.4zm5.8 0h-5v-7.4h4.9v.6h-4.3v2.7h4.1v.6h-4.1v3h4.4v.5zm83.8 16.5c-.3 0-.5-.1-.7-.3a1.08 1.08 0 0 1-.3-.7c0-.3.1-.5.3-.7s.4-.3.7-.3.5.1.7.3a1.08 1.08 0 0 1 .3.7c0 .3-.1.5-.3.7s-.4.3-.7.3zm9.3-.6c-.8.5-1.7.7-2.6.7-1.2 0-2.4-.4-3.3-1.3-.8-.9-1.3-2.2-1.2-3.4-.1-1.4.4-2.7 1.3-3.7s2.2-1.5 3.6-1.4c.8 0 1.5.1 2.2.5v1.5c-.7-.5-1.4-.7-2.2-.7-.9 0-1.8.4-2.4 1-.6.8-1 1.7-.9 2.7-.1 1 .3 1.9.9 2.6.6.6 1.5 1 2.3 1s1.7-.3 2.3-.8v1.3zm5.6.6c-1.3.1-2.5-.4-3.3-1.3-.9-1-1.3-2.2-1.2-3.5-.1-1.4.4-2.7 1.3-3.7a4.52 4.52 0 0 1 3.5-1.3c1.2-.1 2.4.4 3.3 1.3.8 1 1.3 2.3 1.2 3.6.1 1.3-.4 2.6-1.3 3.6-1 .9-2.2 1.4-3.5 1.3h0zm.1-8.6c-.9 0-1.7.3-2.3 1-.6.8-.9 1.7-.8 2.7-.1 1 .3 1.9.9 2.6s1.4 1 2.3 1c.9.1 1.7-.3 2.3-.9.6-.8.9-1.7.8-2.7.1-1-.2-1.9-.8-2.7-.7-.7-1.5-1.1-2.4-1h0zm19.8 8.4h-1.5v-5.4c.1-.8-.1-1.6-.5-2.3-.4-.5-1-.8-1.6-.7-.7 0-1.3.3-1.6.9-.5.6-.7 1.4-.7 2.1v5.4h-1.5v-5.6c0-1.9-.7-2.8-2.1-2.8-.7 0-1.3.3-1.6.8-.5.6-.7 1.4-.6 2.2v5.4h-1.5v-9.4h1.5v1.5h0c.6-1.1 1.7-1.7 2.9-1.7.6 0 1.2.2 1.7.5.5.4.8.8 1 1.4.6-1.2 1.8-2 3.1-2 2.1 0 3.1 1.3 3.1 3.8l-.1 5.9z" fill="#424243"/><defs ><path id="B" d="M26.998 25.097c-.2.8-.6 1.5-1.2 2-.8.7-1.8 1.1-2.8 1-1.3.1-2.5-.5-3.2-1.5h0c-.6-1-.9-2.1-1-3.2h9.7c0-1-.1-1.9-.3-2.9-.2-.8-.5-1.5-1-2.2-1-1.4-2.6-2.2-4.2-2.1-1.7 0-3.2.8-4.2 2.1-.9 1.3-1.4 2.9-1.4 4.5-.1 1.6.4 3.2 1.3 4.6 1 1.4 2.6 2.1 4.3 2 1.3 0 2.6-.4 3.7-1.3a5.32 5.32 0 0 0 1.7-3.1l-1.4.1zm-7.7-4.7c.2-.5.4-.9.8-1.3.7-1 1.9-1.5 3.1-1.5a4.1 4.1 0 0 1 3.1 1.4c.7.9 1 1.9 1.1 3h-8.4c-.1-.5.1-1.1.3-1.6"/></defs></svg>