<svg xmlns="http://www.w3.org/2000/svg" xmlns:xlink="http://www.w3.org/1999/xlink" width="55.82" height="26.216" viewBox="0 0 55.82 26.216"><defs><style>.a{fill:#fff;}.b{fill:url(#a);}.c{fill:url(#b);}.d{fill:url(#c);}.e{fill:url(#d);}.f{fill:url(#e);}.g{fill:url(#f);}.h{fill:url(#g);}.i{fill:#d0232a;}</style><linearGradient id="a" x1="9.203" y1="-3.309" x2="10.203" y2="-3.309" gradientUnits="objectBoundingBox"><stop offset="0" stop-color="#d0232a"/><stop offset="1" stop-color="#df1f29"/></linearGradient><linearGradient id="b" x1="68.611" y1="-71.793" x2="69.611" y2="-71.793" xlink:href="#a"/><linearGradient id="c" x1="68.49" y1="-72.026" x2="69.49" y2="-72.026" xlink:href="#a"/><linearGradient id="d" x1="41.099" y1="-14.566" x2="42.099" y2="-14.566" xlink:href="#a"/><linearGradient id="e" x1="47.872" y1="-14.558" x2="48.872" y2="-14.558" xlink:href="#a"/><linearGradient id="f" x1="24.018" y1="-14.421" x2="25.018" y2="-14.421" xlink:href="#a"/><linearGradient id="g" x1="46.28" y1="-14.145" x2="47.28" y2="-14.145" xlink:href="#a"/></defs><g transform="translate(0 0)"><g transform="translate(0 0)"><g transform="translate(0 0)"><ellipse class="a" cx="12.952" cy="13.09" rx="12.952" ry="13.09" transform="translate(0.028 0.01)"/><path class="b" d="M21.092,16.4V9.778h4.452A12.954,12.954,0,0,0,9.708.435a13.118,13.118,0,0,0-9.244,16,12.933,12.933,0,0,0,25.09-.038Zm-8.236-5.517-3.6,4.24h3.6V16.4H7.4V15.3l3.6-4.24H7.51V9.778h5.346Zm6.5.19H15.8v1.343h3.558v1.3H15.8v1.391h3.558v1.3H14.364V9.785h4.991Z" transform="translate(-0.035 -0.002)"/><path class="c" d="M297.23,144.74v1.329l3.423-.021a13.029,13.029,0,0,0-.136-1.308Z" transform="translate(-274.733 -133.661)"/><path class="d" d="M297.14,180.367h3.293a13.045,13.045,0,0,0,.136-1.4l-3.429.021Z" transform="translate(-274.65 -165.27)"/><path class="e" d="M361.861,127.79h1.067l3.511,4.532V127.79h1.135v6.555h-.964L363,129.682v4.663H361.86Z" transform="translate(-334.471 -117.979)"/><path class="f" d="M458.961,127.79h4.86v1.03h-3.709v1.7H463.4v1.034h-3.287v1.76h3.755v1.03H458.96Z" transform="translate(-424.221 -117.979)"/><path class="g" d="M534.55,127.559H535.8l1.563,4.86,1.611-4.879h.974l1.61,4.879,1.564-4.86h1.211l-2.285,6.6h-.994l-1.61-4.71-1.611,4.71h-.992Z" transform="translate(-494.089 -117.748)"/><path class="h" d="M670.41,132.234l.693-.824a3.02,3.02,0,0,0,2.069.852c.711,0,1.161-.328,1.161-.824v-.019c0-.469-.263-.721-1.48-1-1.4-.337-2.182-.749-2.182-1.957v-.019a2,2,0,0,1,2.238-1.9,3.634,3.634,0,0,1,2.378.824l-.618.871a2.978,2.978,0,0,0-1.779-.674c-.674,0-1.068.346-1.068.777v.019c0,.506.3.73,1.555,1.03,1.386.337,2.107.833,2.107,1.92v.018c0,1.227-.964,1.958-2.34,1.958A4.036,4.036,0,0,1,670.41,132.234Z" transform="translate(-619.665 -116.824)"/><path class="i" d="M2.1-4.54h-.69V-.528H.58V-4.54h-.7v-.712H.593A1.781,1.781,0,0,1,.415-5.98a1.252,1.252,0,0,1,.092-.478,1.04,1.04,0,0,1,.283-.393,1.376,1.376,0,0,1,.491-.264A2.337,2.337,0,0,1,2-7.212a3.04,3.04,0,0,1,.939.142,3.422,3.422,0,0,1,.837.4,4.522,4.522,0,0,1,.754.63,7.75,7.75,0,0,1,.687.818h-.76q-.111-.111-.258-.25t-.328-.282q-.18-.142-.388-.277a3.55,3.55,0,0,0-.435-.241,2.732,2.732,0,0,0-.475-.169,2.019,2.019,0,0,0-.5-.063,1.331,1.331,0,0,0-.389.051.757.757,0,0,0-.272.142.557.557,0,0,0-.158.217.732.732,0,0,0-.051.277.977.977,0,0,0,.04.271,1.459,1.459,0,0,0,.122.29H2.1ZM4.326-1.5a1.176,1.176,0,0,0,.345-.187.31.31,0,0,0,.108-.244.359.359,0,0,0-.036-.16.34.34,0,0,0-.117-.13.639.639,0,0,0-.207-.087,1.268,1.268,0,0,0-.3-.032,1.566,1.566,0,0,0-.291.027.705.705,0,0,0-.253.1.539.539,0,0,0-.179.192.611.611,0,0,0-.068.3.886.886,0,0,0,.073.359,1.261,1.261,0,0,0,.193.309,1.721,1.721,0,0,0,.277.261,3.277,3.277,0,0,0,.325.217A3.471,3.471,0,0,0,4.524-.4q.166.074.309.128L4.519.4q-.247-.1-.492-.225a5.006,5.006,0,0,1-.469-.261A3.3,3.3,0,0,1,3.145-.4a2.108,2.108,0,0,1-.331-.364,1.653,1.653,0,0,1-.22-.432,1.583,1.583,0,0,1-.079-.51A1.414,1.414,0,0,1,2.6-2.2a1.2,1.2,0,0,1,.223-.378A2.108,2.108,0,0,1,2.7-2.784,1.743,1.743,0,0,1,2.6-3a1.776,1.776,0,0,1-.063-.22.991.991,0,0,1-.024-.211.753.753,0,0,1,.044-.256A.56.56,0,0,1,2.7-3.909a.724.724,0,0,1,.258-.152,1.147,1.147,0,0,1,.386-.057H4.636V-4.54H1.875v-.712H6.2v.712H5.469v1.1H3.579a.334.334,0,0,0-.084.011.229.229,0,0,0-.079.038.2.2,0,0,0-.06.074.268.268,0,0,0-.024.12.423.423,0,0,0,.021.135.507.507,0,0,0,.055.116,2.218,2.218,0,0,1,.706-.111,2.284,2.284,0,0,1,.565.068,1.455,1.455,0,0,1,.47.207,1.026,1.026,0,0,1,.321.355,1.04,1.04,0,0,1,.119.51,1.017,1.017,0,0,1-.085.435,1.059,1.059,0,0,1-.223.315,1.4,1.4,0,0,1-.312.226,3.148,3.148,0,0,1-.355.163Zm.488-4.765a.469.469,0,0,1,.033-.177.423.423,0,0,1,.093-.142.439.439,0,0,1,.144-.095.479.479,0,0,1,.185-.035.482.482,0,0,1,.184.035.441.441,0,0,1,.147.1.466.466,0,0,1,.1.146.452.452,0,0,1,.036.182.478.478,0,0,1-.033.18.4.4,0,0,1-.095.141.45.45,0,0,1-.146.092.49.49,0,0,1-.182.033A.5.5,0,0,1,5.1-5.842a.421.421,0,0,1-.147-.095.471.471,0,0,1-.1-.144A.449.449,0,0,1,4.814-6.265Zm5.5,1.726H9.348V-3.07H8.186a.953.953,0,0,0-.636.192.713.713,0,0,0-.225.575,1.146,1.146,0,0,0,.07.4,1.031,1.031,0,0,0,.2.331.925.925,0,0,0,.3.225.9.9,0,0,0,.388.082,1.135,1.135,0,0,0,.166-.011.385.385,0,0,0,.131-.043,1.3,1.3,0,0,1-.028-.272A1.273,1.273,0,0,1,8.6-1.94a.966.966,0,0,1,.139-.3.7.7,0,0,1,.23-.207.631.631,0,0,1,.315-.078.6.6,0,0,1,.231.044.538.538,0,0,1,.188.13.62.62,0,0,1,.128.214.84.84,0,0,1,.047.293,1,1,0,0,1-.04.283,1.384,1.384,0,0,1-.1.255,1.4,1.4,0,0,1-.149.226q-.085.106-.174.2a2.473,2.473,0,0,0,.538.614L9.408.286a2.753,2.753,0,0,1-.391-.424A2.506,2.506,0,0,1,8.746-.6a1.374,1.374,0,0,1-.25.057,1.965,1.965,0,0,1-.25.016,1.6,1.6,0,0,1-.453-.065,1.808,1.808,0,0,1-.416-.18,1.822,1.822,0,0,1-.359-.28,1.808,1.808,0,0,1-.282-.364,1.872,1.872,0,0,1-.184-.429,1.7,1.7,0,0,1-.066-.477,1.642,1.642,0,0,1,.112-.63,1.257,1.257,0,0,1,.313-.456,1.322,1.322,0,0,1,.483-.277,1.974,1.974,0,0,1,.624-.093h.5v-.76H5.982v-.712h4.332Zm1.995,0h-.69V-.531h-.826V-4.54h-.7v-.712H10.8a2.432,2.432,0,0,0-.152-.5,1.691,1.691,0,0,0-.2-.345,1.008,1.008,0,0,0-.223-.218,1.084,1.084,0,0,0-.223-.12.846.846,0,0,0-.2-.052A1.353,1.353,0,0,0,9.652-6.5a.663.663,0,0,0-.45.131.423.423,0,0,0-.149.331.794.794,0,0,0,.122.4,1.851,1.851,0,0,0,.353.421H8.616a1.824,1.824,0,0,1-.3-.494,1.336,1.336,0,0,1-.1-.491A.929.929,0,0,1,8.3-6.6a.88.88,0,0,1,.256-.321,1.288,1.288,0,0,1,.429-.215,2.076,2.076,0,0,1,.606-.079,2.034,2.034,0,0,1,.828.154A1.665,1.665,0,0,1,11-6.64a2,2,0,0,1,.37.622,3.513,3.513,0,0,1,.193.766h.741Z" transform="translate(43.007 25.819)"/></g></g></g></svg>